<svg version="1.0" xmlns="http://www.w3.org/2000/svg" width="721.333" height="636" viewBox="0 0 541 477">
    <path
        d="M139 193.3C87.1 299.6 34.6 406.9 22.3 431.8L.1 477H147l13-26 13-26h94c51.7 0 94-.1 94-.3 0-.1-13.9-31.3-30.9-69.2-19.9-44.4-31.4-69-32.2-68.9-.8.1-67.3 42.3-147.8 93.8C69.7 432 3.6 474 3.4 473.8c-.2-.2 48.1-39.5 107.3-87.2l107.7-86.8 23.3-44.6c12.8-24.6 23.3-45.2 23.3-45.7 0-.6-14.2-32.9-31.5-71.9-27.4-61.6-31.3-71.1-30.3-72.9 1-2 1.6-1.2 6.2 8.3 2.8 5.8 47.9 99 100.1 207.2l95 196.8h136.4l-9.4-19.3c-5.2-10.5-57.5-117.8-116.4-238.2L308.1.5 270.8.3 233.5.1 139 193.3z" />
    <style>
        path {
            fill: #262626
        }

        @media (prefers-color-scheme:dark) {
            path {
                fill: #eafbfa
            }
        }
    </style>
</svg>